<?xml version="1.0" encoding="utf-8"?>
<!-- Generator: Adobe Illustrator 25.2.0, SVG Export Plug-In . SVG Version: 6.00 Build 0)  -->
<svg version="1.1" id="Calque_1" xmlns="http://www.w3.org/2000/svg" xmlns:xlink="http://www.w3.org/1999/xlink" x="0px" y="0px"
	 viewBox="0 0 48 48" style="enable-background:new 0 0 48 48;" xml:space="preserve">
<style type="text/css">
	.st0{fill:#FFFFFF;}
</style>
<path class="st0" d="M7,36c-0.8,0-1.5-0.3-2.1-0.9S4,33.8,4,33V9c0-0.8,0.3-1.5,0.9-2.1S6.2,6,7,6h34c0.8,0,1.5,0.3,2.1,0.9
	S44,8.2,44,9v24c0,0.8-0.3,1.5-0.9,2.1S41.8,36,41,36H7z M3.5,42c-0.4,0-0.8-0.1-1.1-0.4S2,40.9,2,40.5s0.1-0.8,0.4-1.1
	S3.1,39,3.5,39h41c0.4,0,0.8,0.1,1.1,0.4s0.4,0.6,0.4,1.1s-0.1,0.8-0.4,1.1S44.9,42,44.5,42H3.5z"/>
</svg>
