<?xml version="1.0" encoding="utf-8"?>
<!-- Generator: Adobe Illustrator 25.2.0, SVG Export Plug-In . SVG Version: 6.00 Build 0)  -->
<svg version="1.1" id="Calque_1" xmlns="http://www.w3.org/2000/svg" xmlns:xlink="http://www.w3.org/1999/xlink" x="0px" y="0px"
	 viewBox="0 0 48 48" style="enable-background:new 0 0 48 48;" xml:space="preserve">
<path d="M24,6c1,0,1.8,0.3,2.5,1c0.7,0.7,1,1.5,1,2.5s-0.3,1.8-1,2.5c-0.7,0.7-1.5,1-2.5,1s-1.8-0.3-2.5-1c-0.7-0.7-1-1.5-1-2.5
	s0.3-1.8,1-2.5C22.2,6.3,23,6,24,6z M24,18c1,0,1.8,0.3,2.5,1c0.7,0.7,1,1.5,1,2.5v17c0,1-0.3,1.8-1,2.5c-0.7,0.7-1.5,1-2.5,1
	s-1.8-0.3-2.5-1c-0.7-0.7-1-1.5-1-2.5v-17c0-1,0.3-1.8,1-2.5C22.2,18.3,23,18,24,18z"/>
</svg>
